  <svg
        class="medal"
        viewBox="0 0 19.84375 23.8125"
        version="1.1"
        id="toilet-paperless-medal"
        xmlns:xlink="http://www.w3.org/1999/xlink"
        xmlns="http://www.w3.org/2000/svg"
        xmlns:svg="http://www.w3.org/2000/svg"
      >
        <defs id="defs1">
          <linearGradient id="linearGradient5">
            <stop
              style="stop-color: #8ea3c3; stop-opacity: 1"
              offset="0"
              id="stop5"
            />
            <stop
              style="stop-color: #ffffff; stop-opacity: 1"
              offset="1"
              id="stop6"
            />
          </linearGradient>
          <linearGradient id="linearGradient1">
            <stop
              style="stop-color: #483737; stop-opacity: 1"
              offset="0"
              id="stop1"
            />
            <stop
              style="stop-color: #000000; stop-opacity: 1"
              offset="1"
              id="stop2"
            />
          </linearGradient>
          <linearGradient
            xlink:href="#linearGradient1"
            id="linearGradient2"
            x1="108.27023"
            y1="84.247581"
            x2="119.47445"
            y2="92.835648"
            gradientUnits="userSpaceOnUse"
            gradientTransform="matrix(0.26458303,0,0,0.26442312,-18.341937,-20.441344)"
          />
          <linearGradient
            xlink:href="#linearGradient5"
            id="linearGradient6"
            x1="136.05913"
            y1="153.07738"
            x2="88.591522"
            y2="138.76057"
            gradientUnits="userSpaceOnUse"
            gradientTransform="matrix(0.26458303,0,0,0.26442312,-18.341937,-20.441344)"
          />
        </defs>
        <path
          id="path1-7-5"
          style="
            fill: #b5886a;
            stroke: #ad784f;
            stroke-width: 0.0833192;
            stroke-dasharray: none;
            stroke-opacity: 1;
            fill-opacity: 1;
          "
          d="m 5.6492388,2.9057742 v 17.8371548 0.01996 h 0.00409 a 4.2723707,1.2602419 0 0 0 4.2684102,1.239942 4.2723707,1.2602419 0 0 0 4.26841,-1.239942 h 0.0041 V 20.742929 2.9057742 Z"
        />
        <path
          id="rect2"
          style="
            font-variation-settings: normal;
            opacity: 1;
            fill: #c9a188;
            fill-opacity: 1;
            stroke: none;
            stroke-width: 0.0841375;
            stroke-linecap: butt;
            stroke-linejoin: miter;
            stroke-miterlimit: 4;
            stroke-dasharray: none;
            stroke-dashoffset: 0;
            stroke-opacity: 1;
          "
          d="M 5.6766561 2.9967163 L 5.6766561 20.823535 A 4.2723707 1.2602419 0 0 0 6.9365275 21.630204 L 6.9365275 2.9967163 L 5.6766561 2.9967163 z "
        />
        <path
          id="path2-6"
          style="
            font-variation-settings: normal;
            vector-effect: none;
            fill: none;
            fill-opacity: 1;
            stroke: #987056;
            stroke-width: 0.083402;
            stroke-linecap: butt;
            stroke-linejoin: miter;
            stroke-miterlimit: 4;
            stroke-dasharray: none;
            stroke-dashoffset: 0;
            stroke-opacity: 1;
            -inkscape-stroke: none;
            stop-color: #000000;
          "
          d="M 10.367006,2.9057825 C 9.1882983,5.2106615 6.8239337,6.0068228 5.6510199,7.7602526 l -0.0062,0.8056333 V 14.464217 C 8.1584205,10.133552 13.474135,9.2580416 14.131946,5.4596245 l 0.0062,-2.553842 z"
        />
        <path
          style="
            font-variation-settings: normal;
            opacity: 1;
            fill: none;
            fill-opacity: 1;
            stroke: #e3d1c4;
            stroke-width: 0.111125;
            stroke-linecap: butt;
            stroke-linejoin: miter;
            stroke-miterlimit: 4;
            stroke-dasharray: none;
            stroke-dashoffset: 0;
            stroke-opacity: 1;
          "
          d="M 5.6431613,2.8987208 V 20.792836"
          id="path3"
        />
        <ellipse
          style="
            fill: #241f1c;
            stroke: #765743;
            stroke-width: 0.224985;
            stroke-opacity: 1;
          "
          id="path1-7"
          cx="9.921773"
          cy="2.8904619"
          rx="4.2017016"
          ry="1.2393962"
        />
        <path
          id="path2-6-6"
          style="
            font-variation-settings: normal;
            vector-effect: none;
            fill: none;
            fill-opacity: 1;
            stroke: #987056;
            stroke-width: 0.0833803;
            stroke-linecap: butt;
            stroke-linejoin: miter;
            stroke-miterlimit: 4;
            stroke-dasharray: none;
            stroke-dashoffset: 0;
            stroke-opacity: 1;
            -inkscape-stroke: none;
            stop-color: #000000;
          "
          d="m 14.193966,12.121365 c -0.980765,3.386968 -6.5605087,5.955828 -8.4790694,8.800872 0.3016779,0.617794 2.0909941,1.077377 4.2069784,1.080554 0.768822,-0.0017 1.521863,-0.06452 2.179712,-0.181901 1.048812,-0.885386 1.848156,-1.854864 2.077909,-3.182234 z"
        />
        <path
          style="
            font-variation-settings: normal;
            fill: none;
            fill-opacity: 1;
            stroke: #765743;
            stroke-width: 0.111125;
            stroke-linecap: butt;
            stroke-linejoin: miter;
            stroke-miterlimit: 4;
            stroke-dasharray: none;
            stroke-dashoffset: 0;
            stroke-opacity: 1;
          "
          d="M 14.186802,2.868044 V 20.762159"
          id="path3-2"
        />
        <path
          style="
            font-variation-settings: normal;
            opacity: 1;
            fill: #f2f2f2;
            fill-opacity: 0.645398;
            stroke: none;
            stroke-width: 0.0841375;
            stroke-linecap: butt;
            stroke-linejoin: miter;
            stroke-miterlimit: 4;
            stroke-dasharray: none;
            stroke-dashoffset: 0;
            stroke-opacity: 1;
          "
          d="m 10.370261,21.390038 0.08932,-1.002442 -0.228284,-0.472141 c 0,0 0.235083,-1.370968 0.235083,-1.609285 0,-0.238317 -0.366402,-1.594993 -0.366402,-1.728831 0,-0.133838 0.13104,-1.321112 0.13104,-1.321112 0,0 -0.199842,-1.171036 -0.199842,-1.313692 0,-0.142655 0.361832,-1.543877 0.361832,-1.543877 L 10.23199,11.051453 10.336639,9.6920964 c 0,0 -0.234522,-1.1512984 -0.266021,-1.2968927 -0.0315,-0.1455944 0.296837,-0.7445283 0.296837,-0.7445283 l -0.194368,-1.9633128 0.0046,-0.5791148 0.228182,0.5095038 0.234049,0.7095506 -0.166209,1.7385246 0.572066,1.4357249 -0.133342,1.9778183 c 0,0 0.305231,1.370592 0.305231,1.584262 0,0.21367 -0.06615,1.399798 -0.06615,1.399798 l 0.53649,1.153438 -0.660518,1.661446 0.297555,1.47164 -0.256327,1.157709 z"
          id="path4"
        />
        <path
          style="
            font-variation-settings: normal;
            opacity: 1;
            fill: #f2f2f2;
            fill-opacity: 0.645398;
            stroke: none;
            stroke-width: 0.0841375;
            stroke-linecap: butt;
            stroke-linejoin: miter;
            stroke-miterlimit: 4;
            stroke-dasharray: none;
            stroke-dashoffset: 0;
            stroke-opacity: 1;
          "
          d="M 12.842288,6.5566895 13.236587,8.0824402 12.822542,9.7732124 12.789469,8.678112 Z"
          id="path5"
        />
        <path
          style="
            font-variation-settings: normal;
            opacity: 1;
            fill: #f2f2f2;
            fill-opacity: 0.645398;
            stroke: none;
            stroke-width: 0.0841375;
            stroke-linecap: butt;
            stroke-linejoin: miter;
            stroke-miterlimit: 4;
            stroke-dasharray: none;
            stroke-dashoffset: 0;
            stroke-opacity: 1;
          "
          d="m 6.9652723,18.812704 0.5742181,-1.511366 c 0,0 -0.2306707,-1.761238 -0.2911925,-1.582135 -0.060522,0.179104 -0.5756876,1.816439 -0.5756876,1.816439 l -0.096724,1.666932 z"
          id="path6"
        />
        <path
          style="
            font-variation-settings: normal;
            fill: #f2f2f2;
            fill-opacity: 0.645398;
            stroke: none;
            stroke-width: 0.110275;
            stroke-linecap: butt;
            stroke-linejoin: miter;
            stroke-miterlimit: 4;
            stroke-dasharray: none;
            stroke-dashoffset: 0;
            stroke-opacity: 1;
          "
          d="M 6.0576643,11.279955 6.3916056,8.956101 c 0,0 0.6289652,-2.5605126 0.5401888,-2.2737883 C 6.8886005,6.8218176 6.5727413,7.1634035 6.2567427,7.6941699 5.9224068,8.2557369 5.7804964,9.3020804 5.7804964,9.3020804 l -0.07732,3.0973786 z"
          id="path6-7"
        />
        <path
          style="
            font-variation-settings: normal;
            opacity: 1;
            fill: #f2f2f2;
            fill-opacity: 0.645398;
            stroke: none;
            stroke-width: 0.0841375;
            stroke-linecap: butt;
            stroke-linejoin: miter;
            stroke-miterlimit: 4;
            stroke-dasharray: none;
            stroke-dashoffset: 0;
            stroke-opacity: 1;
          "
          d="M 13.938181,4.0337472 14.052863,6.0038284 13.971633,7.6315471 13.85069,5.1337082 Z"
          id="path7"
        />
        <path
          style="
            font-variation-settings: normal;
            opacity: 1;
            fill: #f2f2f2;
            fill-opacity: 0.645398;
            stroke: none;
            stroke-width: 0.0841375;
            stroke-linecap: butt;
            stroke-linejoin: miter;
            stroke-miterlimit: 4;
            stroke-dasharray: none;
            stroke-dashoffset: 0;
            stroke-opacity: 1;
          "
          d="m 13.967976,20.370543 -0.0065,-2.005129 -0.127865,-1.356482 -0.118515,2.265243 z"
          id="path8"
        />
      </svg>